<?xml version="1.0" encoding="UTF-8"?>
<svg width="426px" height="104px" viewBox="0 0 426 104" version="1.1" xmlns="http://www.w3.org/2000/svg" xmlns:xlink="http://www.w3.org/1999/xlink">
    <!-- Generator: Sketch 48.2 (47327) - http://www.bohemiancoding.com/sketch -->
    <title>Artboard</title>
    <desc>Created with Sketch.</desc>
    <defs></defs>
    <g id="Page-1" stroke="none" stroke-width="1" fill="none" fill-rule="evenodd">
        <g id="Resurs-1" fill="#000000" fill-rule="nonzero">
            <path d="M84.79,86 C85.3096645,85.5658835 85.9021623,85.2273134 86.54,85 C89.7377914,83.5744035 92.7776694,81.8181785 95.61,79.76 C97.1349703,78.7189967 98.5669805,77.5479603 99.89,76.26 C100.901553,75.2229119 101.859468,74.1348274 102.76,73 C101.57505,73.0877922 100.432673,72.5394517 99.76,71.56 C99.3683428,71.0682275 99.2944104,70.395054 99.57,69.83 C99.8272543,69.2218887 100.163479,68.6503072 100.57,68.13 C100.76,67.91 101.11,67.69 100.83,67.36 C100.620702,67.1765204 100.315806,67.1521287 100.08,67.3 C99.1010597,67.7274832 98.0995786,68.1013694 97.08,68.42 C96.2694875,68.7779721 95.4297372,69.0656953 94.57,69.28 C92.91,69.69 91.3,70.28 89.66,70.77 C88.26,71.14 86.88,71.58 85.46,71.91 C83.1564485,72.3901681 80.8301659,72.7539626 78.49,73 C77.6495294,73.0462364 76.8073492,72.9481512 76,72.71 C76.16,71.84 75.32,71.84 74.92,71.45 C74.52,71.06 74.18,71.37 73.86,71.64 C73.376793,71.4099824 73.0501492,70.9428059 73,70.41 C73,69.75 73.3,69.41 74,69.52 C74.5452247,70.6057646 75.6104993,71.3348355 76.82,71.45 C77.6858085,71.6226603 78.5735802,71.6564158 79.45,71.55 C83.5175746,71.0314797 87.5325842,70.161561 91.45,68.95 C94.77,67.89 98.07,66.76 101.37,65.63 C102.25,65.33 103.1,64.92 104.15,64.49 C103.645465,64.1430642 103.088325,63.8796889 102.5,63.71 C102.020268,63.6941943 101.565218,63.4935426 101.23,63.15 C101.91,62.97 102.5,62.69 102.63,61.91 C103.703944,61.9507894 104.725407,62.3850004 105.5,63.13 C105.88558,63.5009878 106.464527,63.5854175 106.94,63.34 C108.378378,62.7900255 109.744966,62.0681179 111.01,61.19 C112.219354,60.4652626 113.507753,59.8814565 114.85,59.45 C115.236725,59.2909747 115.681882,59.4295612 115.91,59.78 C116.28,60.25 115.67,60.35 115.61,60.63 C115.49,61.19 115.11,61.4 114.61,61.63 C113.074873,62.2967515 111.590869,63.0755193 110.17,63.96 C109.847897,64.0990157 109.512969,64.2061927 109.17,64.28 C107.978185,64.5601791 107.116875,65.5970164 107.06,66.82 C106.94983,68.1062741 106.611197,69.362601 106.06,70.53 C107.06,70.21 107.83,70.03 108.54,69.74 C112.093919,68.3820628 115.557616,66.7988494 118.91,65 C120.914082,63.870381 122.811822,62.5617103 124.58,61.09 C124.891555,60.7771207 125.271546,60.5409101 125.69,60.4 C126.068502,60.2879168 126.475607,60.4385458 126.69,60.77 C126.91,61.11 126.63,61.35 126.46,61.6 C126.29,61.85 126.18,61.94 126.06,62.13 C125.94,62.32 125.29,62.68 125.69,63.13 C126.09,63.58 126.44,63.13 126.76,62.9 C128.76,61.65 130.76,60.36 132.85,59.12 C135.895956,57.0814721 138.793248,54.8291364 141.52,52.38 C143.6,50.67 145.59,48.85 147.69,47.18 C148.96,46.18 150.36,45.31 151.69,44.4 C152.235469,44.1068653 152.742642,43.7474778 153.2,43.33 C153.34917,43.1645192 153.538656,43.0404925 153.75,42.97 C154.2,42.8 154.75,42.55 155.06,43.09 C155.37,43.63 154.89,43.92 154.59,44.18 C153.18,45.39 151.73,46.54 150.32,47.75 C147.79,49.93 145.09,51.91 142.71,54.26 C141.42,55.54 140.18,56.87 139.02,58.26 C137.860499,59.6199279 137.250661,61.363852 137.31,63.15 C137.317116,63.5975094 137.412258,64.0392409 137.59,64.45 C137.677436,64.8520362 137.947334,65.1903116 138.319918,65.3648377 C138.692502,65.5393639 139.125158,65.5301797 139.49,65.34 C140.572367,64.9735154 141.611781,64.4906908 142.59,63.9 C144.09,63 145.65,62.17 147.18,61.31 C149.23,60.16 151.12,58.78 153.18,57.63 C154.34,56.97 155.6,56.53 156.7,55.79 C157.15,55.49 157.44,55.79 157.77,56 C158.1,56.21 158.1,56.48 157.77,56.74 C156.974241,57.4476465 156.090229,58.049312 155.14,58.53 C153.576723,59.4083042 152.123222,60.4690577 150.81,61.69 C151.330022,61.9125791 151.925332,61.8716515 152.41,61.58 L160,58.47 C160.69,58.18 161.42,58 162.1,57.65 C162.99,57.19 163.24,57.35 163.59,58.43 C163.68,58.73 163.87,58.77 164.07,58.66 C166.07,57.59 168.36,57.05 170.43,56.06 C173.91,54.41 177.24,52.49 180.57,50.58 C180.653597,50.5484751 180.741042,50.5282955 180.83,50.52 L181.77,51.46 C180.03,53.34 178.14,55.08 176.51,57.06 C175.524368,58.1432305 174.763052,59.4109574 174.27,60.79 C174.068796,61.3312576 173.960602,61.9026521 173.95,62.48 C173.95,63.48 174.52,63.96 175.49,63.81 C176.06116,63.7346046 176.617526,63.5727528 177.14,63.33 C179.27,62.33 181.38,61.33 183.5,60.33 C185.62,59.33 187.5,58.09 189.5,56.96 C192.1,55.49 194.62,53.85 197.17,52.3 C199.72,50.75 202.32,49.36 204.71,47.59 C205.78,46.79 207.11,46.52 208.25,45.81 C210.01,44.71 211.89,43.81 213.66,42.73 C216.24,41.19 218.91,39.84 221.51,38.36 C223.51,37.21 225.63,36.15 227.75,35.16 C229.87,34.17 231.75,33.35 233.81,32.52 C236.42,31.46 238.97,30.24 241.7,29.43 C243.003265,28.9981265 244.228829,28.3600229 245.33,27.54 C245.586673,27.2767519 245.958762,27.1606415 246.319599,27.2311961 C246.680435,27.3017506 246.981386,27.5494611 247.12,27.89 C247.47,28.44 247.37,28.89 246.76,29.18 C246.34,29.41 245.87,29.57 245.43,29.78 C241.837446,31.6178723 238.372919,33.69592 235.06,36 C233.25,37.24 231.31,38.31 229.42,39.45 C229.102501,39.6071599 228.795226,39.7841776 228.5,39.98 C226.795219,41.236588 225.022535,42.3983468 223.19,43.46 C221.44,44.54 219.89,45.99 217.89,46.65 C217.56,46.49 217.19,46.39 217.02,46.02 C217.924857,45.2245748 218.926023,44.5459318 220,44 C220.95,43.38 222,42.81 222.91,42.19 C226.85,39.64 230.78,37.09 234.78,34.64 C235.41,34.25 235.99,33.76 236.66,33.41 C236.885749,33.2987882 236.999463,33.0418792 236.93,32.8 C236.432413,32.6588398 235.897541,32.754748 235.48,33.06 C234.14,33.9 232.57,34.06 231.19,34.78 C228.524894,35.9283955 225.930328,37.2340265 223.42,38.69 C222.829702,39.0811272 222.191003,39.3937535 221.52,39.62 C220.562233,39.9641118 219.664586,40.4568053 218.86,41.08 C216.97,42.39 214.78,43.16 212.86,44.4 C211.29,45.4 209.64,46.26 208.04,47.18 C206.21,48.23 204.43,49.35 202.56,50.34 C201.166783,51.0044556 199.860355,51.837345 198.67,52.82 C198.433789,53.0210815 198.162612,53.1770082 197.87,53.28 C197.047843,53.4689721 196.31023,53.9220775 195.77,54.57 C195.68,54.71 195.48,54.77 195.33,54.86 C192.66,56.32 190.06,57.86 187.43,59.42 C185.34,60.64 183.17,61.68 181.05,62.84 C179.351112,63.6902579 177.585156,64.3993158 175.77,64.96 C175.136335,65.1814799 174.43727,65.1124744 173.859138,64.7713764 C173.281006,64.4302784 172.882558,63.8517517 172.77,63.19 C172.510353,62.0140884 172.640219,60.7856292 173.14,59.69 C173.733435,58.2582322 174.587963,56.9493123 175.66,55.83 C175.98,55.49 176.44,55.22 176.52,54.61 C175.982164,54.5418232 175.438571,54.6812977 175,55 C172.836783,56.4519709 170.480461,57.5931041 168,58.39 C167.06,58.71 166.22,59.33 165.26,59.66 C164.13,60.05 163.04,60.54 161.94,61 C161.18,61.32 160.47,61.41 159.94,60.65 C159.58,60.15 159.16,60.35 158.76,60.54 C157.02,61.41 155.19,62.08 153.39,62.83 C152.669227,63.16523 151.915036,63.4233306 151.14,63.6 C149.88,63.85 149.64,63.72 149.14,62.47 C149.075535,62.3158243 149.002076,62.1655658 148.92,62.02 C147.92,62.6 146.99,63.2 146.01,63.75 C144.36,64.68 142.73,65.67 141.01,66.47 C140.442828,66.722349 139.849106,66.9101932 139.24,67.03 C138.679088,67.2179957 138.065258,67.1642492 137.545552,66.8816356 C137.025847,66.5990219 136.647085,66.1130012 136.5,65.54 C135.698193,63.8299746 135.640272,61.8642695 136.34,60.11 C136.635603,59.5317058 136.825263,58.9051509 136.9,58.26 C136.037082,58.4879893 135.248056,58.9359081 134.61,59.56 C131.496971,61.7534973 128.254411,63.7571388 124.9,65.56 C124.19065,66.0054297 123.45234,66.4029813 122.69,66.75 C121.6,67.16 121.3,67.12 120.53,66.2 C120.24,65.84 120.03,65.95 119.76,66.1 C119.18,66.43 118.6,66.76 118.04,67.1 C116.417945,68.1038439 114.695215,68.9350445 112.9,69.58 C110.45,70.45 108.15,71.68 105.67,72.45 C105.003658,72.6590678 104.419612,73.0717472 104,73.63 C102.032628,76.1349166 99.7581251,78.3825424 97.23,80.32 C94.1458223,82.6100264 90.8856979,84.6530377 87.48,86.43 C86.4437979,86.9400366 85.3824396,87.3972884 84.3,87.8 C84.3023408,87.6251048 84.3877305,87.4617506 84.53,87.36 C85.31,86.78 85.31,86.78 84.79,86 Z M105.05,67.77 C103.508178,67.5773121 102.012742,68.3791543 101.32,69.77 C100.84,70.55 101.07,71.14 101.97,71.28 C102.411926,71.3299582 102.858074,71.3299582 103.3,71.28 C103.942894,71.2720612 104.490985,70.811832 104.61,70.18 C104.83,69.44 104.84,68.61 105.05,67.76 L105.05,67.77 Z M142.27,54.1 L142.19,53.87 C142.08,53.92 141.94,53.94 141.87,54.02 C141.828099,54.0691726 141.817691,54.1378458 141.843139,54.197226 C141.868588,54.2566062 141.925495,54.2964301 141.99,54.3 C142.13,54.33 142.22,54.23 142.27,54.1 Z M124.33,64.1 C124.41,63.94 124.21,63.86 124.14,63.86 C123.876629,63.8089613 123.618743,63.9706864 123.55,64.23 C123.535152,64.2930188 123.548816,64.3593788 123.587354,64.4114047 C123.625891,64.4634306 123.685389,64.4958398 123.75,64.5 C123.87875,64.5263765 124.012699,64.4999272 124.121761,64.4265928 C124.230822,64.3532584 124.305853,64.2391868 124.33,64.11 L124.33,64.1 Z M122.74,64.7 C122.74,64.7 122.65,64.77 122.66,64.79 C122.678174,64.8534256 122.705099,64.9140085 122.74,64.97 C122.74,64.97 122.83,64.9 122.82,64.88 C122.800982,64.8200396 122.77408,64.7628726 122.74,64.71 L122.74,64.7 Z M101.22,67.14 L101.05,67.23 C101.05,67.23 101.11,67.32 101.13,67.32 C101.192874,67.2961291 101.253179,67.2659764 101.31,67.23 L101.22,67.14 Z" id="Shape"></path>
            <path d="M183.93,74.35 C184.11,74.84 183.99,75.35 184.26,75.88 C184.98588,77.4964691 186.82356,78.293953 188.5,77.72 C191.300837,76.8986656 193.973297,75.6903368 196.44,74.13 C197.748558,73.3046907 199.100506,72.5502704 200.49,71.87 C202.49,70.75 204.41,69.47 206.34,68.22 C208.81,66.6 211.34,65.02 213.77,63.37 C215.53,62.19 217.43,61.26 219.26,60.2 C221.684508,58.8369137 224.18906,57.6213713 226.76,56.56 C226.998855,56.4508365 227.251011,56.3735089 227.51,56.33 C227.872709,56.25342 228.241685,56.4297089 228.41,56.76 C228.63,57.17 228.41,57.43 228.08,57.65 C226.93,58.54 225.73,59.38 224.6,60.31 C221.93,62.5 219.03,64.37 216.24,66.4 C214.39,67.76 212.62,69.23 210.77,70.59 C208.92,71.95 207.29,73.59 205.48,74.98 C204.909572,75.5235479 204.58675,76.2770709 204.58675,77.065 C204.58675,77.8529291 204.909572,78.6064521 205.48,79.15 C205.797892,79.3886081 206.182612,79.5215112 206.58,79.53 C207.949936,79.6931632 209.339045,79.5391979 210.64,79.08 C213.08,78.24 215.64,77.89 218.1,77.15 C220.93,76.29 223.74,75.37 226.55,74.42 C229.94,73.28 233.31,72.08 236.79,71.22 C237.56,71.03 238.31,70.75 239.08,70.55 C241.288232,70.0903459 243.534777,69.8392419 245.79,69.8 C246.188441,69.7395766 246.595448,69.8209781 246.94,70.03 C247.64,70.5 247.71,71.03 247.11,71.65 C246.188509,72.6688737 245.143816,73.5691233 244,74.33 C243.462136,74.7208828 242.995359,75.2011901 242.62,75.75 C242.14,76.38 242.48,76.97 243.29,76.98 C243.644119,76.981752 243.997,76.938062 244.34,76.85 C247.01,76.25 249.63,75.49 252.24,74.64 C254.85,73.79 257.35,73.23 259.9,72.51 C263.3,71.51 266.69,70.51 270.1,69.61 C272,69.06 274,68.47 276,68 C276.94,67.79 277.83,67.37 278.77,67.12 C283.58,65.8 288.39,64.44 293.22,63.2 C297.12,62.2 301.04,61.31 304.96,60.43 C308.88,59.55 312.67,58.84 316.51,57.97 C319.19,57.37 321.92,56.97 324.56,56.35 C328.29,55.42 332.08,54.88 335.8,53.89 C339.52,52.9 343.57,52.19 347.39,51.06 C349.77,50.35 352.28,50.27 354.61,49.46 C356.41,48.84 358.29,48.57 360.11,48.03 C361.479763,47.6115743 362.880941,47.3039171 364.3,47.11 C365.88,46.9 367.37,46.24 368.98,46.2 C370.12,45.2 371.6,45.69 372.89,45.34 C373.79,45.1 374.61,44.67 375.52,44.48 C376.43,44.29 377.1,44.25 377.84,44.02 C380.44,43.2 383.2,42.96 385.72,41.85 C386.475498,41.6567616 387.244266,41.5197204 388.02,41.44 C389.315694,40.9709727 390.656022,40.6358909 392.02,40.44 C392.24,40.44 392.54,40.44 392.67,40.35 C393.54,39.47 394.67,39.53 395.77,39.41 C398.29,39.14 400.63,38.04 403.14,37.73 C403.43,37.84 403.79,37.73 404.01,38.03 C399.51,39.34 395.01,40.51 390.43,41.62 C387.68,42.29 384.96,43.05 382.22,43.77 C379.48,44.49 376.51,45.32 373.63,45.98 C371.17,46.54 368.77,47.34 366.3,47.81 C364.22,48.22 362.19,48.81 360.14,49.27 C357.22,49.96 354.34,50.8 351.42,51.48 C349.42,51.94 347.49,52.48 345.54,52.99 C342.02,53.99 338.44,54.76 334.88,55.62 C332.7,56.14 330.52,56.67 328.33,57.15 C325.39,57.79 322.47,58.51 319.5,59.03 C317.41,59.4 315.36,59.94 313.28,60.39 L305.83,62 C302.77,62.66 299.72,63.39 296.67,64.1 C293.62,64.81 290.78,65.57 287.85,66.38 C283.41,67.6 279,68.88 274.57,70.13 L262.44,73.54 C258.81,74.54 255.16,75.47 251.55,76.54 C249.41,77.17 247.28,77.86 245.09,78.34 C244.400401,78.4904995 243.695745,78.560965 242.99,78.55 C242.119896,78.6446212 241.28934,78.1624938 240.94,77.36 C240.468094,76.5241591 240.53479,75.4884129 241.11,74.72 C241.53752,74.0992067 242.045254,73.5376727 242.62,73.05 C242.87,72.87 243.08,72.64 243.32,72.44 C243.56,72.24 243.69,72.18 243.57,71.91 C243.45,71.64 243.21,71.67 243,71.67 C242.79,71.67 242.39,71.74 242.08,71.77 C238.48,72.11 235.08,73.33 231.69,74.41 C228,75.57 224.32,76.73 220.69,78.09 C219.480985,78.5294378 218.236392,78.8640057 216.97,79.09 C214.15,79.66 211.44,80.64 208.6,81.09 C207.510958,81.257133 206.398598,81.1854779 205.34,80.88 C204.467406,80.6320245 203.776757,79.9638972 203.5,79.1 C202.609112,77.0203289 203.267798,74.6010043 205.09,73.26 C206.95,71.82 208.71,70.26 210.57,68.85 C212.28,67.54 214.08,66.33 215.69,64.85 C216.747467,64.0468504 217.852844,63.3088187 219,62.64 C219.31,62.43 219.74,62.29 219.6,61.71 C218.940242,61.7166773 218.303553,61.9536674 217.8,62.38 C216.562809,63.3080414 215.247945,64.1277405 213.87,64.83 C212.954837,65.2404495 212.12143,65.8129929 211.41,66.52 C210.827563,67.0683466 210.149744,67.50554 209.41,67.81 C208.019564,68.5614321 206.700741,69.4384156 205.47,70.43 C204.137884,71.3782814 202.733597,72.2208539 201.27,72.95 C198.27,74.57 195.47,76.44 192.37,77.82 C191.138473,78.4259741 189.8485,78.9051068 188.52,79.25 C186.031764,79.8465225 183.521338,78.3517993 182.86,75.88 C183.36,75.49 183.37,74.72 183.93,74.35 Z M241.75,71 C240.75,70.85 240.75,70.85 240.27,71.65 C240.74,71.41 241.36,71.57 241.75,71 Z M277.12,68.58 C277.12,68.58 277.17,68.67 277.21,68.68 C277.25,68.69 277.38,68.68 277.42,68.59 C277.406494,68.5479869 277.378024,68.5123994 277.34,68.49 C277.300461,68.4698252 277.254317,68.4669828 277.212601,68.4821524 C277.170884,68.497322 277.137345,68.5291401 277.12,68.57 L277.12,68.58 Z M243.83,72 C243.98,72 244.13,72 244.11,71.79 C244.09,71.58 244,71.65 243.9,71.7 C243.828784,71.7398048 243.761776,71.7867101 243.7,71.84 L243.83,72 Z" id="Shape"></path>
            <path d="M84.79,86 C85.31,86.79 85.31,86.79 84.53,87.37 C84.3877305,87.4717506 84.3023408,87.6351048 84.3,87.81 C82.13,88.67 80.01,89.62 77.81,90.43 C74.16,91.76 70.53,93.14 66.81,94.3 C62.01,95.82 57.25,97.48 52.4,98.85 C49.0608882,99.8672346 45.6563338,100.655728 42.21,101.21 C40.81,101.41 39.42,101.73 38.03,101.97 C32.8294858,102.804052 27.5664309,103.185482 22.3,103.11 C21.2068749,103.231166 20.1005071,103.125636 19.05,102.8 C18.5911245,102.401448 17.9088755,102.401448 17.45,102.8 C14.0777317,102.65519 10.7979379,101.6537 7.92,99.89 C7.17,99.42 6.41,98.98 5.71,98.44 C2.6854836,96.2573577 0.925080753,92.7290768 1,89 C1.04293824,86.1267156 1.55292999,83.2795431 2.51,80.57 C3.45418138,77.7186946 4.56954128,74.9269554 5.85,72.21 C6.68273429,70.558629 7.61442995,68.9590512 8.64,67.42 C9.75,65.67 10.76,63.85 11.95,62.15 C12.73,61.03 13.53,59.92 14.34,58.82 C17.52,54.51 21.01,50.45 24.59,46.48 C27.26,43.49 30.12,40.72 33,38 C36.81,34.36 40.77,30.89 44.76,27.47 C46.26,26.18 47.9,25.03 49.47,23.81 C51.26,22.39 53,21 54.89,19.72 C59.0612746,16.7247057 63.4538928,14.0503567 68.03,11.72 C69.85,10.84 71.54,9.72 73.33,8.72 C75.12,7.72 76.8,7 78.56,6.19 C80.32,5.38 82.39,4.38 84.38,3.65 C86.04,3.04 87.67,2.36 89.38,1.75 C89.7074145,1.66081155 90.0420359,1.60057969 90.38,1.57 C90.47,1.97 90.31,2.44 90.73,2.74 C89.9734502,3.42272409 89.0151169,3.84045911 88,3.93 C87.26,3.93 86.69,4.41 86.08,4.66 C84.91,5.13 83.68,5.41 82.52,5.91 C80.32,6.88 78.21,8.09 76,9 C74.58,9.57 73.29,10.46 71.91,11.18 C68.91,12.74 65.91,14.3 62.91,16.04 C60.45,17.52 58.07,19.12 55.74,20.81 C53.74,22.3 51.87,24.04 49.74,25.43 C46.49,27.59 43.74,30.33 40.74,32.79 C38.2471765,34.7822557 35.8855968,36.9333976 33.67,39.23 C32.2558792,40.754079 30.7497253,42.1901016 29.16,43.53 C28.4118082,44.2783501 27.704133,45.0661395 27.04,45.89 C25.1837677,47.7944964 23.4312399,49.7973853 21.79,51.89 C20.7,53.28 19.33,54.43 18.3,55.89 C17.27,57.35 16.2,58.67 15.08,60 C13.96,61.33 13,63.1 11.9,64.59 C10.8175476,66.0437051 9.84804469,67.5781942 9,69.18 C7.92,71.18 6.79,73.18 5.88,75.3 C4.34461508,78.6356497 3.28430233,82.1700255 2.73,85.8 C2.46947392,87.5537104 2.46947392,89.3362896 2.73,91.09 C3.2319842,93.5342209 4.66686694,95.686545 6.73,97.09 C8.50005888,98.4222285 10.4761605,99.4558816 12.58,100.15 C13.58,100.5 14.7,100.72 15.78,100.98 C16.084389,101.017856 16.3811722,101.102169 16.66,101.23 C17.18,102.15 17.49,102.23 17.98,101.37 C18.8753966,101.2529 19.784896,101.307199 20.66,101.53 C20.66,101.69 20.66,101.89 20.94,101.86 C21.22,101.83 21.1,101.69 21.12,101.56 C22.2,101.11 23.32,101.45 24.41,101.45 C28,101.45 31.55,100.96 35.12,100.71 C39.168825,100.330639 43.1813242,99.6317958 47.12,98.62 C50.6564096,97.8279043 54.1425672,96.8261348 57.56,95.62 C60.43,94.62 63.35,93.71 66.29,92.9 C67.64,92.53 68.96,92 70.29,91.54 C73.21,90.5266667 76.1166667,89.47 79.01,88.37 C80.29,87.88 81.52,87.25 82.76,86.68 C83.3904294,86.3334691 84.0780395,86.1031366 84.79,86 Z" id="Shape"></path>
            <path d="M183.93,74.35 C183.37,74.72 183.36,75.49 182.82,75.88 C181.99,73.64 182.96,71.81 184.23,70.1 C185.892574,68.0237641 187.846034,66.1982886 190.03,64.68 C191.57,63.51 193.23,62.49 194.78,61.33 C198.24,58.73 201.89,56.4 205.4,53.87 C207.09,52.65 208.81,51.5 210.55,50.35 C211.98,49.41 213.39,48.41 214.78,47.35 C215.49,46.83 216.27,46.4 217.02,45.93 C217.19,46.3 217.56,46.4 217.89,46.56 C217.43,47.49 216.46,47.84 215.67,48.35 C213.9,49.5 212.11,50.62 210.39,51.86 C208.67,53.1 206.82,54.23 205.04,55.43 C204.53,55.77 204.04,56.19 203.57,56.56 C201.88,57.83 200.04,58.9 198.33,60.14 C194.7,62.79 190.94,65.28 187.55,68.24 C186.266924,69.5171847 185.142175,70.9441055 184.2,72.49 C183.8,73.1 184.18,73.77 183.93,74.35 Z" id="Shape"></path>
            <path d="M99.45,4 C98.5979396,5.29145338 97.5208382,6.41936146 96.27,7.33 C93.3253467,9.82523058 90.2294583,12.1362929 87,14.25 C84.1831378,16.1476978 81.2205629,17.8195798 78.14,19.25 C77.34,19.6 76.73,20.17 75.96,20.53 C74.848489,21.0037268 73.6831497,21.3395594 72.49,21.53 C71.49,21.71 70.64,22.08 69.72,22.33 C68.6579649,22.596092 67.5549242,22.6571835 66.47,22.51 C67.4822368,21.8970437 68.5914034,21.4608166 69.75,21.22 C72.0810644,20.5537671 74.3262905,19.6174172 76.44,18.43 C78.64,17.2 80.89,16.07 83.05,14.81 C85.3700024,13.5166637 87.6137066,12.0909767 89.77,10.54 C91.38,9.33 93.08,8.22 94.58,6.87 C96.08,5.52 97.58,4.62 98.48,2.94 C98.74,3.4 98.53,4.21 99.45,4 Z" id="Shape"></path>
            <path d="M102.67,61.91 C102.54,62.69 101.95,62.97 101.27,63.15 C101.08,62.81 100.89,62.87 100.71,63.15 C100.09,63.37 99.85,62.52 99.29,62.63 C98.54,62.77 97.79,62.56 97.05,62.63 C93.9453929,62.8730171 90.8613461,63.3307792 87.82,64 C87.26,64.15 86.75,64.35 86.25,63.8 C85.99,63.51 85.58,63.71 85.25,63.85 C84.4498481,64.2203909 83.6015159,64.4762372 82.73,64.61 C82.62,64.61 82.37,64.61 82.41,64.87 C82.45,65.13 82.89,64.87 83,65.12 C82.772424,65.3092978 82.4942283,65.427531 82.2,65.46 C79.9315746,66.0203479 77.7316762,66.8285423 75.64,67.87 C74.8810139,68.1442329 74.2907552,68.7529371 74.04,69.52 C73.31,69.38 73.04,69.75 73.04,70.41 C72.39,69 72.6,68.2 73.79,67.41 C75.0580202,66.6058465 76.4220307,65.9641569 77.85,65.5 C81.6491172,64.1727806 85.5436844,63.136458 89.5,62.4 C92.7890628,61.7041772 96.1384072,61.3324 99.5,61.29 C100.592473,61.2195144 101.684584,61.4331132 102.67,61.91 Z" id="Shape"></path>
            <path d="M403.94,38.06 C403.72,37.76 403.36,37.87 403.07,37.76 C403.27,37.46 403.6,37.49 403.9,37.45 C404.124611,37.4640512 404.349633,37.4299571 404.56,37.35 C405.9,36.54 407.56,36.85 408.92,36.26 C411.57,35.11 414.46,34.8 417.18,33.87 C419.73,33 422.34,32.32 424.93,31.57 C425.083245,31.5330751 425.244411,31.5829597 425.35,31.7 C424.54,32.02 423.75,32.39 422.93,32.65 C420.83,33.33 418.71,33.99 416.59,34.65 C413.256667,35.6433333 409.903333,36.6133333 406.53,37.56 C405.69024,37.8314793 404.820468,37.9993888 403.94,38.06 Z" id="Shape"></path>
            <path d="M99.45,4 C98.53,4.18 98.74,3.37 98.52,2.93 C97.7577035,2.45898654 96.8935074,2.1777799 96,2.11 C96.08,1.56 95.42,1.72 95.3,1.39 C95.18,1.06 95.2,1.04 94.52,1.07 C94.2573917,1.06968714 93.9956364,1.09988967 93.74,1.16 C93.5055522,1.18224696 93.2923943,1.30542749 93.1560577,1.49745096 C93.019721,1.68947442 92.9737059,1.93132629 93.03,2.16 C92.7107092,2.28261863 92.3720128,2.34697095 92.03,2.35 C91.96,1.91 91.7,1.61 91.25,1.74 C90.8,1.87 90.99,2.37 90.95,2.74 C90.892669,2.78330394 90.8217006,2.80459446 90.75,2.8 C90.33,2.5 90.49,2.03 90.4,1.63 C92,1.11 93.6,0.29 95.38,0.24 C95.6815411,0.19725922 95.9791639,0.130377687 96.27,0.04 C97.7640245,-0.130788337 99.2207471,0.583903989 100,1.87 C99.7055507,2.54657464 99.5199257,3.26544979 99.45,4 Z" id="Shape"></path>
            <path d="M93,2.11 C92.9598195,1.88866895 93.0134894,1.66059681 93.1481549,1.48041052 C93.2828205,1.30022423 93.4863518,1.18415381 93.71,1.16 C93.9656364,1.09988967 94.2273917,1.06968714 94.49,1.07 C95.17,1.07 95.15,1.07 95.27,1.39 C95.39,1.71 96.05,1.56 95.97,2.11 C95,1.55 94,2 93,2.11 Z" id="Shape"></path>
            <path d="M73.88,71.64 C74.2,71.37 74.45,70.95 74.94,71.45 C75.43,71.95 76.18,71.84 76.02,72.71 C75.1785794,72.7076557 74.3867279,72.3117299 73.88,71.64 Z" id="Shape"></path>
            <path d="M90.92,2.68 C90.92,2.32 90.72,1.84 91.22,1.68 C91.72,1.52 91.93,1.85 92,2.29 C91.7245418,2.58744083 91.3219427,2.73282383 90.92,2.68 Z" id="Shape"></path>
            <path d="M99.45,4 C99.5199257,3.26544979 99.7055507,2.54657464 100,1.87 C100.281901,2.62506374 100.062223,3.47581336 99.45,4 Z" id="Shape"></path>
            <path d="M181.75,51.46 L180.81,50.52 C181.04,50.15 181.31,50.24 181.56,50.52 C181.81,50.8 182.15,51.05 181.75,51.46 Z" id="Shape"></path>
            <path d="M18,101.41 C17.51,102.22 17.2,102.19 16.68,101.27 L18,101.41 Z" id="Shape"></path>
            <path d="M17.46,102.78 C17.9188755,102.381448 18.6011245,102.381448 19.06,102.78 L17.46,102.78 Z" id="Shape"></path>
            <path d="M21.15,101.6 C21.15,101.73 21.15,101.88 20.97,101.9 C20.79,101.92 20.72,101.73 20.69,101.57 L21.15,101.6 Z" id="Shape"></path>
            <path d="M142.19,53.87 L142.27,54.1 C142.22,54.23 142.13,54.33 141.99,54.3 L142.19,53.87 Z" id="Shape"></path>
            <path d="M241.75,71 C241.36,71.58 240.75,71.42 240.27,71.65 C240.76,70.84 240.76,70.84 241.75,71 Z" id="Shape"></path>
            <path d="M277.12,68.57 C277.135336,68.5273568 277.168035,68.4932169 277.209978,68.4760584 C277.251921,68.4588999 277.299173,68.4603323 277.34,68.48 C277.378024,68.5023994 277.406494,68.5379869 277.42,68.58 C277.42,68.68 277.3,68.72 277.21,68.67 C277.12,68.62 277.15,68.61 277.12,68.57 Z" id="Shape"></path>
            <path d="M243.83,72 L243.7,71.84 C243.761776,71.7867101 243.828784,71.7398048 243.9,71.7 C244,71.7 244.1,71.7 244.11,71.79 C244.12,71.88 244,72 243.83,72 Z" id="Shape"></path>
            <path d="M101.31,63.15 C101.12,63.34 100.94,63.21 100.75,63.15 C100.93,62.87 101.12,62.81 101.31,63.15 Z" id="Shape"></path>
        </g>
        <g id="Artboard"></g>
    </g>
</svg>